<svg width="50" height="50" viewBox="0 0 50 50" fill="none" xmlns="http://www.w3.org/2000/svg">
<path d="M1.5 2.33984H35C42.4558 2.33984 48.5 8.384 48.5 15.8398V47.8131H15C7.54416 47.8131 1.5 41.769 1.5 34.3131V2.33984Z" stroke="#0F4471" stroke-width="3"/>
<g clip-path="url(#clip0_13_82)">
<path d="M30.4017 34.9589L30.0384 36.3986C28.9485 36.8156 28.078 37.133 27.4297 37.3512C26.7807 37.5701 26.0267 37.679 25.1675 37.679C23.8481 37.679 22.8219 37.3657 22.09 36.7433C21.358 36.1184 20.992 35.3266 20.992 34.3661C20.992 33.9942 21.0185 33.6118 21.0738 33.2221C21.1295 32.8319 21.218 32.3925 21.3392 31.9014L22.7012 27.2278C22.8224 26.7803 22.9254 26.3563 23.0079 25.9553C23.0915 25.5568 23.1318 25.1902 23.1318 24.8601C23.1318 24.2633 23.0044 23.8458 22.7506 23.6111C22.4968 23.377 22.0126 23.2582 21.2937 23.2582C20.9416 23.2582 20.5798 23.3129 20.2109 23.4186C19.8404 23.5248 19.5237 23.6273 19.2578 23.7227L19.622 22.2818C20.5143 21.9296 21.3671 21.628 22.1829 21.3777C22.9988 21.1267 23.7696 21.0011 24.4987 21.0011C25.809 21.0011 26.8201 21.3082 27.5301 21.9222C28.2401 22.5366 28.595 23.3332 28.595 24.3148C28.595 24.5178 28.5717 24.8757 28.5216 25.3871C28.4727 25.8997 28.3816 26.3694 28.2488 26.7966L26.8926 31.4514C26.7814 31.8253 26.6815 32.2527 26.5945 32.7337C26.5048 33.2115 26.4619 33.5765 26.4619 33.8214C26.4619 34.4395 26.6041 34.8615 26.8891 35.0858C27.1762 35.3101 27.6706 35.4217 28.373 35.4217C28.7027 35.4217 29.0779 35.365 29.4947 35.2537C29.9105 35.1423 30.2136 35.0445 30.4017 34.9589ZM30.7456 15.4165C30.7456 16.2275 30.4303 16.9201 29.7967 17.4896C29.1648 18.0612 28.4033 18.3472 27.5124 18.3472C26.6188 18.3472 25.8554 18.0612 25.2162 17.4896C24.5782 16.9199 24.2585 16.2275 24.2585 15.4165C24.2585 14.6071 24.5782 13.9133 25.2162 13.3365C25.8542 12.7607 26.619 12.4729 27.5124 12.4729C28.403 12.4729 29.1648 12.7614 29.7967 13.3365C30.4308 13.9133 30.7456 14.6073 30.7456 15.4165Z" fill="#0F4471"/>
</g>
<defs>
<clipPath id="clip0_13_82">
<rect width="26" height="25.2061" fill="white" transform="translate(12 12.4729)"/>
</clipPath>
</defs>
</svg>
