<svg width="70" height="71" viewBox="0 0 70 71" fill="none" xmlns="http://www.w3.org/2000/svg">
<path d="M2 2.91602H55C62.1797 2.91602 68 8.73631 68 15.916V68.916H15C7.8203 68.916 2 63.0957 2 55.916V2.91602Z" stroke="#0F4471" stroke-width="4"/>
<path d="M26.704 25.4733C26.7535 25.6314 26.7381 25.8028 26.6613 25.9497C26.5845 26.0965 26.4525 26.2069 26.2943 26.2564L25.1016 26.6298L27.5005 34.2947V23.9136L26.3305 24.2798L26.704 25.4733Z" fill="#0F4471"/>
<path d="M39.7023 52.166H32.5C32.3342 52.166 32.1753 52.1002 32.0581 51.983C31.9408 51.8657 31.875 51.7068 31.875 51.541V50.291H30.625C30.4592 50.291 30.3003 50.2252 30.1831 50.108C30.0658 49.9907 30 49.8318 30 49.666V22.166C30 22.0003 30.0658 21.8413 30.1831 21.7241C30.3003 21.6069 30.4592 21.541 30.625 21.541H31.875V20.291C31.875 20.1253 31.9408 19.9663 32.0581 19.8491C32.1753 19.7319 32.3342 19.666 32.5 19.666H40C40.1658 19.666 40.3247 19.7319 40.4419 19.8491C40.5592 19.9663 40.625 20.1253 40.625 20.291V21.541H41.875C42.0408 21.541 42.1997 21.6069 42.3169 21.7241C42.4342 21.8413 42.5 22.0003 42.5 22.166V42.9739L42.8195 43.416H43.75V18.416H28.75V53.416H41.0542C40.55 53.0613 40.0953 52.6409 39.7023 52.166Z" fill="#0F4471"/>
<path d="M27.502 42.6656V38.4795L23.7235 26.4067C23.699 26.3284 23.6901 26.246 23.6974 26.1642C23.7048 26.0825 23.7281 26.003 23.7662 25.9302C23.8042 25.8575 23.8562 25.793 23.9192 25.7403C23.9821 25.6877 24.0549 25.648 24.1332 25.6235L25.3259 25.2501L24.9524 24.0567C24.9029 23.8985 24.9183 23.7271 24.9951 23.5803C25.072 23.4334 25.204 23.3231 25.3622 23.2736L27.502 22.6036V21.2939L21.4102 23.2008L27.502 42.6656Z" fill="#0F4471"/>
<path d="M39.3633 38.6329L41.25 41.2441V22.791H40C39.8342 22.791 39.6753 22.7252 39.5581 22.608C39.4408 22.4907 39.375 22.3318 39.375 22.166V20.916H33.125V22.166C33.125 22.3318 33.0592 22.4907 32.9419 22.608C32.8247 22.7252 32.6658 22.791 32.5 22.791H31.25V49.041H32.5C32.6658 49.041 32.8247 49.1069 32.9419 49.2241C33.0592 49.3413 33.125 49.5003 33.125 49.666V50.916H38.878C38.4091 50.002 38.1525 48.994 38.1272 47.9671L34.1904 42.1405C33.8738 41.6708 33.6905 41.124 33.6599 40.5584C33.6293 39.9928 33.7526 39.4294 34.0166 38.9283C33.4126 38.481 32.9569 37.8626 32.7085 37.1533C32.4602 36.4439 32.4306 35.6763 32.6238 34.95C32.8169 34.2236 33.2237 33.572 33.7915 33.0797C34.3594 32.5873 35.062 32.2769 35.8084 32.1886C36.5548 32.1004 37.3105 32.2383 37.9775 32.5847C38.6445 32.931 39.1921 33.4697 39.5493 34.131C39.9065 34.7923 40.0568 35.5456 39.9808 36.2933C39.9047 37.041 39.6058 37.7486 39.1228 38.3245C39.2093 38.4222 39.2896 38.5252 39.3633 38.6329Z" fill="#0F4471"/>
<path d="M44.9982 31.541V44.041C44.9982 44.2068 44.9323 44.3657 44.8151 44.483C44.6979 44.6002 44.539 44.666 44.3732 44.666H42.4982C42.3993 44.666 42.3018 44.6425 42.2137 44.5975C42.1257 44.5525 42.0496 44.4873 41.9916 44.4071L38.3428 39.3574C38.339 39.3521 38.335 39.3467 38.3315 39.3413C38.1955 39.1331 38.0194 38.9541 37.8135 38.8146C37.6076 38.6751 37.3761 38.5779 37.1323 38.5288C36.8885 38.4796 36.6374 38.4794 36.3935 38.5283C36.1497 38.5771 35.918 38.674 35.7119 38.8132C35.5059 38.9525 35.3296 39.1313 35.1933 39.3393C35.057 39.5474 34.9635 39.7804 34.9181 40.025C34.8728 40.2695 34.8766 40.5206 34.9292 40.7636C34.9818 41.0067 35.0823 41.2368 35.2247 41.4407L39.279 47.4411C39.3717 47.5783 39.4062 47.7467 39.3748 47.9094C39.4075 49.3798 40.014 50.7791 41.0649 51.8081C42.1157 52.8371 43.5274 53.4142 44.9982 53.416H48.7482V39.041C48.7479 38.7333 48.6722 38.4303 48.5277 38.1587L44.9982 31.541Z" fill="#0F4471"/>
<path d="M33.75 35.9159C33.75 36.3174 33.8467 36.713 34.032 37.0691C34.2174 37.4252 34.4858 37.7315 34.8146 37.9618C34.884 37.9059 34.9552 37.852 35.0302 37.8016C35.4811 37.4974 36.0036 37.3161 36.546 37.2757C37.0884 37.2352 37.6319 37.337 38.123 37.5709C38.391 37.2678 38.5814 36.9041 38.6779 36.5111C38.7744 36.1181 38.774 35.7075 38.6768 35.3147C38.5797 34.9219 38.3886 34.5585 38.12 34.2558C37.8514 33.9531 37.5134 33.7201 37.1349 33.5769C36.7564 33.4337 36.3488 33.3844 35.9471 33.4335C35.5455 33.4825 35.1617 33.6283 34.8288 33.8583C34.4958 34.0884 34.2237 34.3958 34.0358 34.7542C33.8479 35.1126 33.7499 35.5113 33.75 35.9159Z" fill="#0F4471"/>
</svg>
